<?xml version="1.0" standalone="no"?>
<!DOCTYPE svg PUBLIC "-//W3C//DTD SVG 20010904//EN"
 "http://www.w3.org/TR/2001/REC-SVG-20010904/DTD/svg10.dtd">
<svg version="1.0" xmlns="http://www.w3.org/2000/svg"
 width="89.000000pt" height="89.000000pt" viewBox="0 0 89.000000 89.000000"
 preserveAspectRatio="xMidYMid meet">
<metadata>
Created by potrace 1.14, written by Peter Selinger 2001-2017
</metadata>
<g transform="translate(0.000000,89.000000) scale(0.100000,-0.100000)"
fill="#000000" stroke="none">
<path d="M220 590 l0 -81 -30 16 c-111 57 -211 -69 -170 -216 21 -77 109 -113
169 -70 28 20 36 20 32 -1 0 -5 10 -8 24 -8 28 0 26 -18 26 235 0 222 2 205
-26 205 -25 0 -25 -1 -25 -80z m-30 -105 c30 -15 30 -17 30 -99 0 -66 -3 -86
-17 -98 -27 -23 -57 -30 -87 -18 -72 27 -67 190 7 220 31 12 34 12 67 -5z"/>
<path d="M320 450 l0 -220 25 0 c14 0 25 6 26 13 0 6 1 55 0 108 0 87 2 98 22
117 35 32 72 37 96 13 19 -19 21 -33 21 -136 l0 -115 25 0 c28 0 27 -6 27 137
0 55 -5 110 -11 121 -30 56 -74 66 -141 32 l-38 -20 0 58 c0 111 0 112 -27
112 l-25 0 0 -220z"/>
<path d="M674 530 c-32 -13 -72 -67 -80 -106 -26 -139 67 -242 168 -186 l38
20 0 -79 c0 -78 0 -79 25 -79 21 0 25 5 26 33 1 39 1 379 0 390 -1 12 -39 8
-43 -4 -3 -8 -14 -7 -35 5 -35 17 -66 20 -99 6z m104 -48 c20 -12 22 -20 22
-96 0 -66 -3 -86 -17 -98 -41 -36 -101 -29 -124 13 -15 30 -19 96 -7 131 6 16
21 37 36 48 27 21 53 22 90 2z"/>
</g>
</svg>
